<svg width="280" height="280" viewBox="0 0 100 100" fill="none" xmlns="http://www.w3.org/2000/svg">
  <g transform="rotate(90, 50, 50)">
    <polygon points="90,50,80,67.32050807568876,60,67.32050807568878,50,50,59.99999999999999,32.679491924311236,80,32.67949192431123" style="opacity:0.4;" fill="hsl(0, 100%, 50%)" stroke="none" transform="rotate(60,50,50)"></polygon>
    <polygon points="80,67.32050807568876,70,84.64101615137753,50,84.64101615137756,40,67.32050807568876,49.99999999999999,50.00000000000001,70,50" style="opacity:0.4;" fill="hsl(120, 100%, 50%)" stroke="none" transform="rotate(60,50,50)"></polygon>
    <polygon points="60,67.32050807568878,50,84.64101615137754,30.000000000000004,84.64101615137756,20.000000000000004,67.32050807568878,29.999999999999996,50.000000000000014,50,50" style="opacity:0.4;" fill="hsl(240, 100%, 50%)" stroke="none" transform="rotate(60,50,50)"></polygon>
    <polygon points="50,50,40,67.32050807568876,20,67.32050807568878,10,50,19.999999999999993,32.679491924311236,40,32.67949192431123" style="opacity:0.4;" fill="hsl(360, 100%, 50%)" stroke="none" transform="rotate(60,50,50)"></polygon>
    <polygon points="59.99999999999999,32.679491924311236,49.99999999999999,50,29.999999999999993,50.000000000000014,19.999999999999993,32.679491924311236,29.999999999999986,15.358983848622469,49.99999999999999,15.358983848622461" style="opacity:0.4;" fill="hsl(480, 100%, 50%)" stroke="none" transform="rotate(60,50,50)"></polygon>
    <polygon points="80,32.67949192431123,70,49.99999999999999,50,50.00000000000001,40,32.67949192431123,49.99999999999999,15.358983848622465,70,15.358983848622458" style="opacity:0.4;" fill="hsl(600, 100%, 50%)" stroke="none" transform="rotate(60,50,50)"></polygon>
    <polygon points="70,50,60,67.32050807568876,40,67.32050807568878,30,50,39.99999999999999,32.679491924311236,60,32.67949192431123" fill="none" stroke="white" transform="rotate(0,50,50)" stroke-width="1.5"></polygon>
  </g>
</svg>